<svg width="22" height="19" viewBox="0 0 22 19" fill="none" xmlns="http://www.w3.org/2000/svg">
<path d="M19.5569 0.00176707C19.284 0.0144624 19.0269 0.0938079 18.7984 0.182675H18.7952C18.5635 0.274716 17.4622 0.738095 15.7896 1.43951C14.117 2.1441 11.9461 3.05816 9.79107 3.96588C5.48736 5.77813 1.25665 7.56183 1.25665 7.56183L1.30743 7.54278C1.30743 7.54278 1.01544 7.638 0.710752 7.84747C0.555235 7.94903 0.383848 8.08868 0.234679 8.30767C0.0855084 8.52667 -0.0350974 8.8631 0.00933657 9.20904C0.0823348 9.7962 0.463194 10.1485 0.736143 10.3421C1.01227 10.5389 1.27569 10.6309 1.27569 10.6309H1.28204L5.24933 11.9671C5.42706 12.5384 6.45856 15.928 6.70611 16.7088C6.85211 17.1754 6.99493 17.4673 7.17267 17.6895C7.25836 17.8038 7.35992 17.899 7.48053 17.9752C7.52814 18.0037 7.57892 18.0259 7.6297 18.045C7.64557 18.0545 7.66144 18.0577 7.68048 18.0608L7.63922 18.0513C7.65191 18.0545 7.66144 18.064 7.67096 18.0672C7.7027 18.0767 7.72491 18.0799 7.76617 18.0862C8.39459 18.2767 8.89923 17.8863 8.89923 17.8863L8.92779 17.8641L11.2701 15.7313L15.1961 18.7432L15.285 18.7813C16.1038 19.1399 16.9322 18.94 17.3702 18.5877C17.8113 18.2322 17.9827 17.7784 17.9827 17.7784L18.0113 17.7054L21.0455 2.16314C21.1312 1.77911 21.1534 1.42047 21.0582 1.07135C20.9629 0.722226 20.7186 0.395322 20.4234 0.220761C20.1251 0.0430266 19.8299 -0.0109282 19.5569 0.00176707ZM19.4744 1.66803C19.4713 1.71881 19.4808 1.71246 19.4586 1.81085V1.82037L16.4529 17.2007C16.4402 17.223 16.418 17.2706 16.3577 17.3182C16.2942 17.369 16.2435 17.4007 15.98 17.296L11.178 13.6143L8.27716 16.2581L8.88653 12.367C8.88653 12.367 16.4085 5.35601 16.7322 5.0545C17.056 4.75299 16.9481 4.68951 16.9481 4.68951C16.9703 4.32135 16.4593 4.5816 16.4593 4.5816L6.56647 10.7103L6.56329 10.6944L1.82159 9.09796V9.09478C1.81842 9.09478 1.81207 9.09161 1.8089 9.09161C1.81207 9.09161 1.83429 9.08209 1.83429 9.08209L1.85968 9.06939L1.88507 9.05987C1.88507 9.05987 6.11896 7.27618 10.4227 5.46392C12.5777 4.55621 14.7486 3.64215 16.418 2.93756C18.0875 2.23614 19.3221 1.72198 19.3919 1.69342C19.4586 1.66803 19.4268 1.66803 19.4744 1.66803Z" fill="#A6A6A6"/>
</svg>
